<svg xmlns="http://www.w3.org/2000/svg" width="15" height="15" viewBox="0 0 2500 2500" version="1.1">
	<path d="M 670.060 1.460 C 637.467 7.652, 609.808 33.651, 600.869 66.500 C 597.755 77.943, 597.669 100.067, 600.694 111.508 C 603.402 121.752, 606.797 129.384, 612.633 138.348 C 616.325 144.020, 731.517 259.758, 1169.390 697.750 L 1721.492 1250 1169.390 1802.250 C 731.517 2240.242, 616.325 2355.980, 612.633 2361.652 C 606.797 2370.616, 603.402 2378.248, 600.694 2388.492 C 597.669 2399.933, 597.755 2422.057, 600.869 2433.500 C 607.806 2458.992, 625.173 2479.724, 649.500 2491.555 C 662.471 2497.864, 669.681 2499.381, 687 2499.446 C 709.723 2499.531, 725.353 2494.424, 741.930 2481.496 C 744.993 2479.107, 998.654 2225.906, 1305.620 1918.826 L 1863.740 1360.500 1871.886 1348.181 C 1892.156 1317.527, 1902.038 1285.131, 1901.980 1249.526 C 1901.923 1214.377, 1892.045 1182.305, 1871.886 1151.819 L 1863.740 1139.500 1305.620 581.161 C 998.654 274.075, 744.575 20.572, 741 17.822 C 733.039 11.698, 718.731 4.617, 710 2.480 C 700.843 0.240, 679.371 -0.309, 670.060 1.460" stroke="none" fill="#000000" fill-rule="evenodd"></path>
</svg>