<svg xmlns="http://www.w3.org/2000/svg" width="15" height="15" viewBox="0 0 2500 2500" version="1.1">
	<path d="M 1795.060 1.460 C 1782.477 3.850, 1770.780 9.057, 1760 17.065 C 1756.425 19.721, 1502.133 273.356, 1194.907 580.697 C 666.527 1109.276, 635.936 1140.068, 629.314 1150 C 619.871 1164.161, 615.926 1171.477, 610.707 1184.500 C 593.722 1226.890, 593.722 1273.110, 610.707 1315.500 C 615.926 1328.523, 619.871 1335.839, 629.314 1350 C 635.936 1359.931, 666.538 1390.737, 1194.407 1918.839 C 1501.358 2225.925, 1755.425 2479.428, 1759 2482.178 C 1767.104 2488.412, 1781.294 2495.387, 1790.500 2497.662 C 1799.342 2499.846, 1823.884 2500.139, 1832 2498.157 C 1864.982 2490.101, 1890.364 2465.658, 1899.137 2433.500 C 1900.902 2427.031, 1901.325 2422.725, 1901.350 2411 C 1901.395 2390.227, 1897.869 2377.784, 1887.367 2361.652 C 1883.675 2355.980, 1768.483 2240.242, 1330.610 1802.250 L 778.508 1250 1330.610 697.750 C 1777.072 251.168, 1883.631 144.089, 1887.516 138.124 C 1893.068 129.601, 1897.329 119.667, 1899.759 109.582 C 1902.320 98.950, 1901.999 77.067, 1899.128 66.500 C 1892.204 41.020, 1874.825 20.272, 1850.500 8.446 C 1845.550 6.040, 1838.575 3.355, 1835 2.480 C 1825.843 0.240, 1804.371 -0.309, 1795.060 1.460" stroke="none" fill="#000000" fill-rule="evenodd"></path>
</svg>