<svg xmlns="http://www.w3.org/2000/svg" width="15" height="15" viewBox="0 0 2500 2500" version="1.1">
	<path d="M 241.500 1.132 C 113.936 13.343, 11.905 116.595, 1.010 244.500 C 0.209 253.905, -0.011 472.665, 0.214 1035.500 C 0.511 1779.240, 0.604 1813.962, 2.324 1824 C 10.719 1872.989, 28.599 1914.598, 56.895 1950.997 C 65.617 1962.217, 84.170 1981.305, 96 1991.230 C 129.438 2019.284, 170.084 2039.071, 212.500 2047.943 C 239.087 2053.504, 232.887 2053.302, 390.235 2053.719 L 535.969 2054.104 536.239 2241.302 L 536.508 2428.500 538.819 2435.973 C 543.683 2451.699, 553.912 2467.211, 566.758 2478.341 C 584.850 2494.017, 605.243 2500.950, 629.500 2499.673 C 643.921 2498.914, 651.179 2496.996, 664.500 2490.426 C 675.139 2485.179, 684.318 2477.933, 944.349 2269.516 L 1213.198 2054.032 1734.349 2053.721 C 2217.474 2053.434, 2256.303 2053.288, 2266.500 2051.723 C 2312.729 2044.627, 2350.018 2030.130, 2385.500 2005.458 C 2404.902 1991.968, 2428.873 1969.305, 2443.105 1950.997 C 2473.189 1912.299, 2493.561 1862.623, 2498.059 1817 C 2498.683 1810.675, 2499.600 1804.719, 2500.097 1803.764 C 2501.259 1801.530, 2501.310 248.691, 2500.147 249.409 C 2499.679 249.699, 2499.015 245.992, 2498.673 241.172 C 2496.374 208.784, 2483.421 167.603, 2465.749 136.500 C 2421.905 59.329, 2344.419 9.161, 2256.500 1.020 C 2242.769 -0.251, 254.798 -0.141, 241.500 1.132 M 250.105 180.545 C 217.335 187.661, 192.320 210.523, 182.316 242.500 L 179.500 251.500 179.500 1026.500 L 179.500 1801.500 181.721 1809.157 C 186.217 1824.651, 192.442 1835.360, 203.931 1847.362 C 215.572 1859.521, 229.061 1867.589, 245.500 1872.224 L 253.500 1874.480 447.500 1874.990 L 641.500 1875.500 650.500 1878.308 C 679.236 1887.273, 702.326 1910.422, 711.217 1939.179 L 713.481 1946.500 713.761 2085.250 C 713.915 2161.563, 714.249 2224, 714.503 2224 C 714.757 2224, 806.832 2150.380, 919.115 2060.401 C 1031.397 1970.421, 1126.017 1894.772, 1129.382 1892.292 C 1136.829 1886.803, 1146.307 1881.972, 1155 1879.234 C 1158.575 1878.108, 1162.625 1876.815, 1164 1876.359 C 1165.375 1875.904, 1409.500 1875.299, 1706.500 1875.016 L 2246.500 1874.500 2254.500 1872.234 C 2286.006 1863.310, 2309.742 1839.547, 2318.662 1808 C 2320.439 1801.717, 2320.500 1775.682, 2320.500 1026.500 L 2320.500 251.500 2317.684 242.500 C 2308.607 213.487, 2286.513 191.393, 2257.500 182.316 L 2248.500 179.500 1252.500 179.328 C 405.856 179.182, 255.541 179.364, 250.105 180.545 M 0.497 1027 C 0.497 1454.625, 0.611 1629.563, 0.750 1415.750 C 0.889 1201.938, 0.889 852.063, 0.750 638.250 C 0.611 424.438, 0.497 599.375, 0.497 1027 M 1227.384 447.105 C 1101.399 454.340, 987.742 529.768, 930.403 644.193 C 906.736 691.424, 894.795 738.840, 893.307 791.500 C 892.809 809.094, 892.992 813.876, 894.434 820.984 C 898.293 840.002, 905.128 852.332, 919.942 867 C 933.735 880.657, 948.272 888.481, 965.381 891.456 C 1005.787 898.482, 1043.940 879.546, 1062.002 843.500 C 1068.498 830.536, 1069.936 824.689, 1071.100 806.500 C 1073.466 769.554, 1078.620 747.591, 1090.425 724.149 C 1105.708 693.801, 1130.175 667.457, 1159 650.313 C 1187.069 633.619, 1216.251 625.739, 1250 625.739 C 1268.854 625.739, 1280.642 627.208, 1296.500 631.534 C 1327.178 639.903, 1353.020 654.911, 1375.554 677.446 C 1410.101 711.992, 1428 755.185, 1428 804.004 C 1428 863.739, 1398.319 918.821, 1348 952.470 C 1332.694 962.706, 1313.580 971.127, 1294.510 976.037 C 1280.392 979.672, 1272.421 980.775, 1251.500 981.986 C 1242.150 982.528, 1231.660 983.653, 1228.189 984.488 C 1196.423 992.125, 1169.003 1020.540, 1162.533 1052.526 C 1161.119 1059.515, 1160.952 1068.178, 1161.241 1119.526 C 1161.568 1177.576, 1161.608 1178.617, 1163.852 1185.973 C 1172.068 1212.917, 1195.650 1237.387, 1221.214 1245.497 C 1258.531 1257.336, 1296.532 1245.859, 1320.506 1215.509 C 1333.037 1199.644, 1337.942 1185.829, 1338.733 1164.169 C 1339.073 1154.859, 1339.650 1149.723, 1340.378 1149.509 C 1367.863 1141.418, 1383.932 1135.407, 1404.886 1125.377 C 1440.385 1108.385, 1469.821 1087.749, 1498.850 1059.503 C 1557.772 1002.171, 1592.745 932.250, 1604.641 848 C 1607.158 830.175, 1607.168 776.943, 1604.657 759 C 1594.385 685.575, 1565.876 622.238, 1518.913 568.500 C 1455.292 495.701, 1366.996 452.614, 1270 447.036 C 1250.684 445.925, 1247.853 445.929, 1227.384 447.105 M 1237.500 1429.115 C 1179.602 1433.859, 1130.574 1478.065, 1118.400 1536.500 C 1115.771 1549.118, 1115.771 1575.882, 1118.400 1588.500 C 1129.748 1642.970, 1172.652 1684.935, 1226.829 1694.557 C 1231.993 1695.475, 1241.364 1696.097, 1250 1696.097 C 1272.737 1696.097, 1289.099 1692.404, 1308.756 1682.834 C 1340.628 1667.317, 1364.857 1639.937, 1376.747 1606 C 1381.965 1591.106, 1383.485 1581.355, 1383.451 1563 C 1383.409 1540.493, 1380.347 1526.297, 1371.398 1507.129 C 1347.310 1455.531, 1294.023 1424.484, 1237.500 1429.115" stroke="none" fill="#000000" fill-rule="evenodd"></path>
</svg>