<svg xmlns="http://www.w3.org/2000/svg" width="15" height="15" viewBox="0 0 2500 2500" version="1.1">
	<path d="M 1205 0.587 C 1156.563 2.744, 1119.741 5.932, 1078 11.582 C 907.089 34.717, 738.119 95.847, 589.500 188.314 C 471.607 261.664, 364.013 357.147, 274.902 467.500 C 183.507 580.681, 110.839 713.805, 64.018 853.828 C 32.522 948.018, 13.095 1041.993, 4.547 1141.500 C 1.148 1181.066, 0.528 1197.765, 0.519 1250 C 0.508 1309.430, 1.992 1338.892, 7.542 1389.500 C 27.656 1572.887, 89.934 1752.378, 188.314 1910.500 C 272.288 2045.469, 384.980 2166.549, 515 2261.503 C 615.897 2335.188, 732.635 2395.317, 853.500 2435.854 C 947.420 2467.354, 1041.825 2486.891, 1141.500 2495.453 C 1181.208 2498.865, 1197.719 2499.477, 1250 2499.477 C 1309.506 2499.477, 1339.061 2497.990, 1389.500 2492.458 C 1572.887 2472.344, 1752.378 2410.066, 1910.500 2311.686 C 1971.292 2273.863, 2027.771 2231.356, 2086 2179.602 C 2103.445 2164.097, 2164.097 2103.445, 2179.602 2086 C 2259.602 1995.991, 2318.801 1908.773, 2369.990 1805.500 C 2439.600 1665.061, 2480.846 1519.455, 2495.026 1364.089 C 2496.884 1343.737, 2498.993 1308.758, 2498.997 1298.250 C 2498.999 1292.086, 2499.399 1288, 2500 1288 C 2500.649 1288, 2501 1274.480, 2501 1249.441 C 2501 1223.990, 2500.660 1211.092, 2500 1211.500 C 2499.358 1211.897, 2498.999 1208.426, 2498.997 1201.809 C 2498.991 1184.904, 2495.950 1142.471, 2492.453 1110.500 C 2472.420 927.347, 2410.058 747.610, 2311.686 589.500 C 2266.424 516.751, 2214.075 449.469, 2154.131 387 C 2049.696 278.166, 1937.402 195.389, 1805.500 130.010 C 1654.683 55.256, 1502.861 14.427, 1331.055 2.419 C 1311.071 1.023, 1223.725 -0.247, 1205 0.587 M 1195 180.088 C 1046.630 187.634, 905.080 224.796, 772 291.143 C 687.752 333.145, 615.565 381.676, 543 445.099 C 511.873 472.305, 458.772 526.498, 430.414 560 C 295.344 719.575, 208.958 919.803, 185.576 1127.500 C 176.722 1206.143, 176.722 1293.857, 185.576 1372.500 C 210.952 1597.906, 310.138 1813.223, 464.743 1978.527 C 481.043 1995.955, 518.063 2032.576, 532.500 2045.555 C 636.238 2138.812, 751.650 2208.400, 882.107 2256.353 C 971.405 2289.176, 1063.797 2309.536, 1159.500 2317.478 C 1229.558 2323.292, 1307.336 2322.015, 1376.500 2313.914 C 1601.631 2287.545, 1815.608 2188.292, 1979.688 2034.127 C 2074.788 1944.773, 2146.400 1850.105, 2204.071 1737.500 C 2281.775 1585.782, 2321 1422.244, 2321 1250 C 2321 1079.180, 2282.980 918.959, 2206.503 767.500 C 2166.646 688.565, 2122.590 622.215, 2066.068 556 C 2023.161 505.735, 1969.460 453.645, 1918 412.372 C 1838.282 348.436, 1746.099 294.607, 1650.500 256.170 C 1537.479 210.728, 1424.955 186.132, 1302.103 180.016 C 1278.976 178.864, 1218.253 178.905, 1195 180.088 M 1226 625.582 C 1224.075 625.801, 1217.550 626.475, 1211.500 627.080 C 1107.835 637.439, 1011.080 696.266, 952.584 784.500 C 920.493 832.905, 903.154 880.217, 894.862 942 C 894.149 947.311, 893.568 961.862, 893.543 975 C 893.494 1001.877, 894.072 1005.183, 901.535 1020.653 C 913.594 1045.652, 936.891 1064.123, 963.309 1069.632 C 972.575 1071.563, 991.577 1071.532, 1000.991 1069.569 C 1023.393 1064.898, 1043.484 1051.015, 1056.952 1030.902 C 1066.856 1016.111, 1070.452 1003.778, 1071.505 981 C 1071.848 973.575, 1072.783 962.817, 1073.583 957.093 C 1084.576 878.430, 1146.947 816.327, 1225.784 805.543 C 1315.517 793.270, 1400.823 850.824, 1422.910 938.538 C 1429.743 965.673, 1429.750 998.129, 1422.928 1025.462 C 1408.705 1082.452, 1366.215 1129.669, 1311.246 1149.567 C 1291.903 1156.569, 1281.700 1158.480, 1253 1160.477 C 1229.391 1162.120, 1221.752 1163.870, 1209.257 1170.499 C 1186.861 1182.381, 1171.160 1201.262, 1163.792 1225.171 L 1161.534 1232.500 1161.234 1335 C 1161.034 1403.350, 1161.286 1439.776, 1161.989 1444.330 C 1166.442 1473.185, 1188.520 1500.223, 1217 1511.705 C 1227.884 1516.093, 1235.897 1517.500, 1250 1517.500 C 1269.652 1517.500, 1283.066 1513.613, 1298.500 1503.446 C 1306.339 1498.282, 1317.411 1487.948, 1322.548 1481 C 1329.940 1471.003, 1336.026 1456.736, 1337.946 1444.901 C 1338.574 1441.034, 1338.988 1416.684, 1338.992 1383.401 L 1339 1328.303 1350.250 1325.074 C 1414.467 1306.643, 1474.726 1267.947, 1519.857 1216.157 C 1562.126 1167.654, 1591.499 1105.785, 1601.886 1043.376 C 1606.100 1018.062, 1606.489 1012.853, 1606.473 982 C 1606.457 951.267, 1606.029 945.516, 1601.912 920.772 C 1592.523 864.349, 1565.954 805.183, 1529.717 760 C 1470.787 686.524, 1389.509 640.569, 1296 627.856 C 1282.240 625.986, 1235.733 624.475, 1226 625.582 M 0.455 1250.500 C 0.455 1271.950, 0.587 1280.583, 0.749 1269.684 C 0.911 1258.785, 0.910 1241.235, 0.748 1230.684 C 0.587 1220.133, 0.454 1229.050, 0.455 1250.500 M 1239.500 1696.611 C 1178.168 1702.644, 1131.203 1744.650, 1118.316 1805 C 1115.802 1816.776, 1115.815 1844.007, 1118.341 1856 C 1124.179 1883.714, 1136.902 1906.905, 1156.923 1926.321 C 1174.942 1943.796, 1194.260 1954.560, 1218.726 1960.755 C 1228.725 1963.288, 1230.975 1963.484, 1250 1963.484 C 1269.025 1963.484, 1271.275 1963.288, 1281.274 1960.755 C 1305.730 1954.562, 1325.038 1943.803, 1343.077 1926.317 C 1394.271 1876.692, 1397.725 1799.524, 1351.251 1743.714 C 1332.327 1720.989, 1302.247 1703.693, 1272.759 1698.582 C 1263.835 1697.035, 1245.957 1695.976, 1239.500 1696.611" stroke="none" fill="#000000" fill-rule="evenodd"></path>
</svg>