<svg xmlns="http://www.w3.org/2000/svg" width="15" height="15" viewBox="0 0 2500 2500" version="1.1">
	<path d="M 1193 0.637 C 1174.044 3.405, 1157.555 11.506, 1143.657 24.880 C 1131.722 36.365, 1122.616 51.525, 1118.359 67 C 1116.652 73.208, 1116.547 106.983, 1116.036 818.965 L 1115.500 1564.429 1107.500 1557.444 C 1030.568 1490.267, 927.618 1444.838, 824.500 1432.563 C 781.475 1427.442, 729.964 1427.621, 688.500 1433.036 C 546.419 1451.591, 417.312 1527.343, 329.794 1643.500 C 242.573 1759.263, 206.340 1908.994, 230.579 2053.500 C 248.979 2163.200, 300.689 2263.333, 380.005 2342.858 C 480.767 2443.885, 616.083 2499.986, 759 2499.986 C 922.351 2499.986, 1075.022 2426.443, 1177.907 2298.195 C 1221.146 2244.295, 1254.371 2179.937, 1273.963 2112.129 C 1283.321 2079.741, 1288.180 2053.427, 1293.191 2008 C 1294.058 2000.144, 1294.434 1769.037, 1294.688 1090.191 L 1295.026 182.881 1299.263 183.437 C 1301.593 183.743, 1310.925 184.912, 1320 186.034 C 1454.797 202.708, 1591.131 254.240, 1705.500 331.749 C 1807.122 400.618, 1897.852 494.552, 1962.216 597.531 C 2022.449 693.901, 2065.132 804.733, 2084.455 914.937 C 2092.525 960.959, 2096.399 1001.486, 2097.941 1056 C 2098.678 1082.057, 2099.112 1087.665, 2100.923 1094.500 C 2108.939 1124.762, 2135.269 1150.715, 2165.500 1158.154 C 2172.453 1159.865, 2177.456 1160.368, 2187.500 1160.368 C 2197.544 1160.368, 2202.547 1159.865, 2209.500 1158.154 C 2239.676 1150.728, 2265.490 1125.342, 2274.224 1094.500 C 2276.363 1086.945, 2276.483 1084.830, 2276.382 1056.500 C 2276.051 963.934, 2262.031 867.591, 2235.491 775.500 C 2173.904 561.804, 2048.532 373.908, 1874.500 234.477 C 1708.290 101.315, 1505.537 20.591, 1294.500 3.559 C 1258.492 0.653, 1203.696 -0.924, 1193 0.637 M 743.500 1607.603 C 691.490 1610.655, 649.685 1621.124, 604.618 1642.381 C 535.309 1675.073, 475.143 1733.924, 440.588 1802.825 C 421.435 1841.015, 409.942 1878.956, 404.336 1922.500 C 401.819 1942.059, 401.828 1986.715, 404.354 2006.500 C 414.151 2083.226, 445.308 2150.481, 497.100 2206.704 C 545.337 2259.066, 607.196 2295.089, 678.011 2312.056 C 708.721 2319.414, 755.728 2322.870, 787.463 2320.103 C 834.603 2315.993, 874.885 2304.880, 916.500 2284.506 C 998.927 2244.149, 1062.201 2173.559, 1094.495 2085.930 C 1108.775 2047.183, 1115.280 2009.737, 1115.417 1965.500 C 1115.519 1932.504, 1112.922 1909.281, 1105.891 1880.307 C 1087.616 1805.006, 1046.079 1738.820, 985.500 1688.472 C 932.619 1644.523, 862.818 1615.523, 794.500 1609.120 C 782.035 1607.951, 752.518 1607.073, 743.500 1607.603" stroke="none" fill="#000000" fill-rule="evenodd"></path>
</svg>