<svg xmlns="http://www.w3.org/2000/svg" width="15" height="15" viewBox="0 0 2500 2500" version="1.1">
	<path d="M 166.500 223.649 C 121.894 227.214, 83.210 244.816, 52.513 275.513 C 25.967 302.059, 10.175 332.501, 2.198 372.500 C 0.747 379.776, 0.575 454.751, 0.287 1201.500 C -0.059 2098.048, -0.447 2034.457, 5.547 2063.695 C 8.580 2078.491, 16.915 2104.465, 22.813 2117.500 C 49.042 2175.469, 93.689 2221.827, 149.500 2249.045 C 182.474 2265.125, 211.486 2273.133, 247.195 2276.011 C 256.579 2276.767, 548.455 2276.987, 1237.500 2276.756 C 2161.224 2276.447, 2215.154 2276.334, 2226.500 2274.682 C 2272.593 2267.969, 2310.229 2254.904, 2347.769 2232.582 C 2413.438 2193.534, 2464.315 2128.622, 2486.427 2055.671 C 2492.947 2034.163, 2498.617 2004.376, 2499.215 1988.500 C 2499.339 1985.200, 2499.693 1992.400, 2500 2004.500 C 2500.307 2016.600, 2500.547 1657.725, 2500.533 1207 C 2500.519 756.275, 2500.279 478.850, 2500 590.500 C 2499.721 702.150, 2499.366 792.150, 2499.211 790.500 C 2497.122 768.281, 2480.723 742.631, 2459.674 728.660 C 2444.789 718.779, 2431.402 714.845, 2412 714.648 C 2387.531 714.400, 2369.917 720.744, 2352.166 736.199 C 2334.972 751.170, 2324.518 771.038, 2322.018 793.500 C 2321.361 799.406, 2321.008 1004.297, 2320.991 1389.500 C 2320.963 2027.814, 2321.369 1982.401, 2315.503 2002.500 C 2305.795 2035.762, 2281.068 2065.897, 2249.959 2082.380 C 2197.153 2110.358, 2133.249 2100.139, 2091.734 2057.077 C 2073.173 2037.826, 2062.028 2016.593, 2055.739 1988.500 C 2054.921 1984.847, 2054.450 1768, 2053.989 1183.500 C 2053.418 460.554, 2053.205 382.681, 2051.778 375 C 2044.030 333.292, 2027.253 300.978, 1999.284 273.893 C 1972.245 247.708, 1942.992 232.909, 1903 225.184 C 1895.161 223.670, 1827.438 223.534, 1032.500 223.436 C 558.400 223.377, 168.700 223.473, 166.500 223.649 M 0.498 1208 C 0.498 1658.725, 0.611 1843.113, 0.750 1617.750 C 0.889 1392.388, 0.889 1023.613, 0.750 798.250 C 0.611 572.888, 0.498 757.275, 0.498 1208 M 179.246 1213.750 L 179.500 2025.500 182.259 2034.297 C 187.167 2049.943, 193.859 2060.762, 206.088 2072.823 C 218.705 2085.266, 234.505 2093.508, 251.381 2096.451 C 259.351 2097.841, 344.640 2098, 1082.533 2098 L 1904.805 2098 1900.453 2088.110 C 1887.857 2059.491, 1878.908 2023.914, 1876.025 1991 C 1875.359 1983.399, 1875.014 1712.108, 1875.009 1190.750 L 1875 402 1026.996 402 L 178.993 402 179.246 1213.750 M 605.887 671.506 C 575.057 677.649, 547.881 703.234, 538.760 734.702 L 536.500 742.500 536.500 982 C 536.500 1202.533, 536.632 1221.975, 538.168 1227.500 C 545.165 1252.674, 561.139 1272.608, 584.176 1284.916 C 593.687 1289.998, 602.414 1292.593, 614.623 1293.972 C 621.774 1294.779, 737.366 1295.001, 1033.500 1294.774 C 1419.511 1294.479, 1442.865 1294.363, 1449 1292.709 C 1452.575 1291.746, 1458.425 1289.804, 1462 1288.395 C 1486.998 1278.543, 1508.354 1254.330, 1515.268 1228 L 1517.500 1219.500 1517.500 982.500 C 1517.500 762.468, 1517.378 744.998, 1515.793 738.492 C 1507.671 705.146, 1480.364 678.278, 1447.792 671.584 C 1440.827 670.153, 1400.198 670.009, 1026.292 670.094 C 688.241 670.171, 611.290 670.429, 605.887 671.506 M 714.667 848.667 C 714.300 849.033, 714 909.333, 714 982.667 L 714 1116 1026.500 1116 L 1339 1116 1339 982 L 1339 848 1027.167 848 C 855.658 848, 715.033 848.300, 714.667 848.667 M 610.500 1652.711 C 597.279 1654.555, 579.451 1662.705, 568.231 1672.035 C 554.629 1683.345, 543.575 1700.067, 538.800 1716.557 C 536.814 1723.416, 536.500 1726.752, 536.500 1741 C 536.500 1755.166, 536.820 1758.603, 538.760 1765.298 C 547.979 1797.106, 574.492 1821.918, 606.208 1828.420 C 613.160 1829.845, 654.428 1830, 1027 1830 C 1400.753 1830, 1440.818 1829.849, 1447.785 1828.409 C 1475.119 1822.763, 1500.380 1801.689, 1511.197 1775.508 C 1516.045 1763.775, 1517.480 1755.907, 1517.490 1741 C 1517.502 1725.234, 1515.800 1716.925, 1509.978 1704.327 C 1505.259 1694.114, 1501.279 1688.249, 1493.557 1680.133 C 1481.726 1667.696, 1469.692 1660.048, 1454.500 1655.308 L 1445.500 1652.500 1029.500 1652.396 C 800.700 1652.339, 612.150 1652.481, 610.500 1652.711" stroke="none" fill="#000000" fill-rule="evenodd"></path>
</svg>