<svg xmlns="http://www.w3.org/2000/svg" width="15" height="15" viewBox="0 0 2500 2500" version="1.1">
	<path d="M 1011.500 3.865 C 992.270 10.500, 978.252 18.383, 965.143 29.934 C 944.354 48.253, 929.027 74.558, 922.860 102.500 C 920.288 114.154, 919.327 136.916, 920.934 148.123 C 924.116 170.316, 928.593 181.796, 947.063 215.125 C 1024.780 355.360, 1075.432 506.033, 1095.443 656.500 C 1105.219 730.008, 1106.944 805.694, 1100.445 876 C 1088.903 1000.857, 1048.129 1114.646, 983.120 1203.424 L 976.585 1212.348 966.160 1201.424 C 943.048 1177.206, 921.029 1151.130, 899.518 1122.500 C 861.381 1071.743, 830.403 1019.838, 802.372 959.726 C 790.633 934.552, 788.298 930.643, 779.166 920.881 C 762.568 903.140, 739.230 892.961, 715 892.894 C 695.492 892.840, 683.963 896.493, 659.875 910.356 C 470.634 1019.271, 334.248 1204.595, 286.649 1417.500 C 272.564 1480.505, 267.280 1533.023, 268.310 1599.789 C 268.877 1636.544, 269.329 1643.931, 273.068 1677.500 C 295.767 1881.319, 387.115 2074.531, 529.500 2219.886 C 569.809 2261.036, 607.154 2293.462, 650.709 2325.132 C 786.039 2423.532, 947.240 2483.652, 1115.500 2498.478 C 1135.964 2500.281, 1265.827 2500.627, 1305.789 2498.985 C 1491.594 2491.350, 1652.126 2449.141, 1791.428 2371.296 C 1943.865 2286.112, 2065.415 2155.602, 2139.925 1997.110 C 2183.198 1905.065, 2211.402 1806.568, 2224.428 1702 C 2230.977 1649.433, 2232.491 1622.573, 2232.491 1559 C 2232.491 1505.542, 2231.981 1491.993, 2228.446 1451.500 C 2210.092 1241.248, 2137.484 1019.514, 2020.022 815 C 1900.457 606.825, 1740.653 421.638, 1547.500 267.423 C 1455.880 194.273, 1354.476 127.192, 1251 71.281 C 1201.144 44.342, 1131.427 10.187, 1113.500 3.916 L 1102.500 0.069 1062.500 0.069 L 1022.500 0.069 1011.500 3.865 M 1160.687 242.250 C 1223.775 383.301, 1264.396 534.614, 1277.938 679 C 1281.871 720.943, 1282.498 736.468, 1282.499 792 C 1282.500 847.430, 1282.118 856.348, 1277.910 899 C 1262.309 1057.127, 1209.027 1200.137, 1122.963 1314.882 C 1093.210 1354.551, 1050.203 1401.013, 1031.360 1413.845 C 1016.762 1423.785, 1001.415 1428.281, 982 1428.304 C 963.163 1428.326, 948.839 1424.222, 934.075 1414.573 C 915.369 1402.348, 854.615 1345.133, 820.908 1308 C 769.790 1251.686, 721.130 1184.865, 683.797 1119.718 L 679.337 1111.937 663.419 1125.218 C 645.595 1140.090, 615.840 1168.810, 600.976 1185.490 C 538.171 1255.965, 493.927 1336.709, 468.638 1427 C 446.964 1504.385, 441.329 1583.344, 451.579 1666 C 462.307 1752.499, 486.578 1831.536, 526.970 1911.500 C 543.020 1943.274, 553.392 1961.214, 571.490 1988.500 C 600.608 2032.404, 625.649 2062.818, 665.415 2102.585 C 704.337 2141.507, 737.772 2169.128, 780.500 2197.659 C 904.761 2280.632, 1058.824 2325.914, 1205.836 2322.674 C 1322.822 2320.095, 1357.138 2318.048, 1411 2310.436 C 1725.268 2266.023, 1940.884 2086.967, 2022.048 1803 C 2051.713 1699.213, 2061.123 1577.263, 2048.977 1454 C 2036.127 1323.590, 1997.477 1182.211, 1937.964 1047.924 C 1871.885 898.820, 1776.439 751.257, 1663.190 623.114 C 1617.593 571.521, 1558.783 512.724, 1506.977 466.937 C 1452.672 418.942, 1400.600 378.100, 1336 332.836 C 1303.540 310.092, 1252.370 277.732, 1211 253.787 C 1194.805 244.413, 1152.378 221, 1151.586 221 C 1151.364 221, 1155.460 230.563, 1160.687 242.250 M 1680.831 1518.958 C 1662.670 1522.276, 1648.571 1529.594, 1634.638 1542.931 C 1622.618 1554.439, 1615.110 1566.777, 1610.437 1582.703 C 1608.254 1590.143, 1607.715 1594.662, 1606.939 1612 C 1605.917 1634.848, 1605.007 1642.929, 1601.464 1660.633 C 1593.794 1698.959, 1577.225 1735.808, 1553.187 1768 C 1543.238 1781.324, 1516.635 1808.474, 1504 1818.199 C 1470.496 1843.986, 1432.213 1861.556, 1392.467 1869.389 C 1374.446 1872.940, 1366.553 1873.831, 1343 1874.972 C 1321.764 1876.002, 1315.532 1877.089, 1304.500 1881.693 C 1285.037 1889.814, 1264.946 1909.912, 1256.707 1929.502 C 1251.579 1941.696, 1250.594 1947.362, 1250.620 1964.500 C 1250.642 1979.038, 1250.894 1981.323, 1253.381 1989.500 C 1262.389 2019.122, 1286.267 2042.623, 1315.500 2050.639 C 1334.717 2055.909, 1385.673 2053.298, 1427.266 2044.912 C 1503.003 2029.642, 1573.651 1994.903, 1632 1944.240 C 1645.820 1932.241, 1670.570 1907.106, 1681.472 1894 C 1721.835 1845.474, 1751.968 1788.813, 1768.516 1730.323 C 1778.170 1696.202, 1782.898 1667.553, 1785.072 1630 C 1786.349 1607.944, 1785.751 1595.255, 1782.909 1584.143 C 1775.279 1554.307, 1750.027 1528.974, 1719.500 1520.529 C 1712.589 1518.618, 1688.132 1517.624, 1680.831 1518.958" stroke="none" fill="#000000" fill-rule="evenodd"></path>
</svg>