<svg xmlns="http://www.w3.org/2000/svg" width="15" height="15" viewBox="0 0 2500 2500" version="1.1">
	<path d="M 428 1.553 C 411.161 5.164, 397.227 12.740, 384.155 25.391 C 372.167 36.994, 362.830 53.097, 358.870 69 C 357.714 73.641, 357.500 258.266, 357.500 1250.500 L 357.500 2426.500 360.309 2435.500 C 370.553 2468.324, 397.762 2492.950, 430 2498.575 C 440.851 2500.468, 458.703 2500.018, 468 2497.616 C 497.007 2490.123, 521.521 2467.886, 531.038 2440.434 C 536.258 2425.377, 535.988 2453.664, 535.994 1922.256 L 536 1429.013 1301.250 1428.756 L 2066.500 1428.500 2075 1426.139 C 2108.581 1416.809, 2132.973 1392.196, 2140.680 1359.862 C 2143.176 1349.391, 2143.145 1328.075, 2140.620 1318 C 2138.275 1308.644, 2133.547 1298.168, 2127.948 1289.923 C 2125.582 1286.440, 2014.489 1156.208, 1881.073 1000.519 C 1747.658 844.831, 1637.893 716.686, 1637.152 715.754 C 1635.951 714.244, 1662.262 683.192, 1878.518 430.896 C 2012.011 275.156, 2122.983 145.431, 2125.122 142.617 C 2130.811 135.132, 2136.515 123.646, 2139.607 113.451 C 2142.057 105.369, 2142.321 102.994, 2142.321 89 C 2142.321 75.006, 2142.056 72.625, 2139.601 64.500 C 2129.858 32.253, 2102.233 7.042, 2070.619 1.544 C 2062.658 0.160, 1977.441 0.008, 1248.119 0.079 C 556.430 0.147, 433.526 0.368, 428 1.553 M 536 714.500 L 536 1250 1197.674 1250 L 1859.349 1250 1857.316 1247.750 C 1838.182 1226.576, 1445.432 766.660, 1442.021 761.434 C 1436.727 753.325, 1431.770 740.752, 1429.977 730.889 C 1427.496 717.234, 1429.019 696.572, 1433.421 684.191 C 1435.709 677.755, 1441.498 667.163, 1445.895 661.370 C 1448.036 658.549, 1541.635 549.088, 1653.894 418.124 C 1766.152 287.160, 1858 179.781, 1858 179.504 C 1858 179.227, 1560.550 179, 1197 179 L 536 179 536 714.500" stroke="none" fill="#000000" fill-rule="evenodd"></path>
</svg>