<svg xmlns="http://www.w3.org/2000/svg" width="15" height="15" viewBox="0 0 2500 2500" version="1.1">
	<path d="M 1205 0.587 C 1156.563 2.744, 1119.741 5.932, 1078 11.582 C 907.089 34.717, 738.119 95.847, 589.500 188.314 C 471.607 261.664, 364.013 357.147, 274.902 467.500 C 183.507 580.681, 110.839 713.805, 64.018 853.828 C 32.522 948.018, 13.095 1041.993, 4.547 1141.500 C 1.148 1181.066, 0.528 1197.765, 0.519 1250 C 0.508 1309.430, 1.992 1338.892, 7.542 1389.500 C 27.656 1572.887, 89.934 1752.378, 188.314 1910.500 C 272.288 2045.469, 384.980 2166.549, 515 2261.503 C 615.897 2335.188, 732.635 2395.317, 853.500 2435.854 C 947.420 2467.354, 1041.825 2486.891, 1141.500 2495.453 C 1181.208 2498.865, 1197.719 2499.477, 1250 2499.477 C 1309.506 2499.477, 1339.061 2497.990, 1389.500 2492.458 C 1572.887 2472.344, 1752.378 2410.066, 1910.500 2311.686 C 1971.292 2273.863, 2027.771 2231.356, 2086 2179.602 C 2103.445 2164.097, 2164.097 2103.445, 2179.602 2086 C 2259.602 1995.991, 2318.801 1908.773, 2369.990 1805.500 C 2439.600 1665.061, 2480.846 1519.455, 2495.026 1364.089 C 2496.884 1343.737, 2498.993 1308.758, 2498.997 1298.250 C 2498.999 1292.086, 2499.399 1288, 2500 1288 C 2500.649 1288, 2501 1274.480, 2501 1249.441 C 2501 1223.990, 2500.660 1211.092, 2500 1211.500 C 2499.358 1211.897, 2498.999 1208.426, 2498.997 1201.809 C 2498.991 1184.904, 2495.950 1142.471, 2492.453 1110.500 C 2472.420 927.347, 2410.058 747.610, 2311.686 589.500 C 2266.424 516.751, 2214.075 449.469, 2154.131 387 C 2049.696 278.166, 1937.402 195.389, 1805.500 130.010 C 1654.683 55.256, 1502.861 14.427, 1331.055 2.419 C 1311.071 1.023, 1223.725 -0.247, 1205 0.587 M 1195 180.088 C 1046.630 187.634, 905.080 224.796, 772 291.143 C 687.752 333.145, 615.565 381.676, 543 445.099 C 511.873 472.305, 458.772 526.498, 430.414 560 C 295.344 719.575, 208.958 919.803, 185.576 1127.500 C 176.722 1206.143, 176.722 1293.857, 185.576 1372.500 C 210.952 1597.906, 310.138 1813.223, 464.743 1978.527 C 481.043 1995.955, 518.063 2032.576, 532.500 2045.555 C 636.238 2138.812, 751.650 2208.400, 882.107 2256.353 C 971.405 2289.176, 1063.797 2309.536, 1159.500 2317.478 C 1229.558 2323.292, 1307.336 2322.015, 1376.500 2313.914 C 1601.631 2287.545, 1815.608 2188.292, 1979.688 2034.127 C 2074.788 1944.773, 2146.400 1850.105, 2204.071 1737.500 C 2281.775 1585.782, 2321 1422.244, 2321 1250 C 2321 1079.180, 2282.980 918.959, 2206.503 767.500 C 2166.646 688.565, 2122.590 622.215, 2066.068 556 C 2023.161 505.735, 1969.460 453.645, 1918 412.372 C 1838.282 348.436, 1746.099 294.607, 1650.500 256.170 C 1537.479 210.728, 1424.955 186.132, 1302.103 180.016 C 1278.976 178.864, 1218.253 178.905, 1195 180.088 M 1772.500 625.677 C 1755.005 629.566, 1743.870 634.063, 1733.612 641.383 C 1726.159 646.701, 1716.358 656.973, 1711.520 664.537 C 1709.580 667.569, 1579.920 889.526, 1423.386 1157.775 C 1266.852 1426.024, 1138.025 1646.725, 1137.105 1648.222 L 1135.432 1650.945 953.466 1505.358 C 853.385 1425.285, 768.730 1357.788, 765.344 1355.365 C 757.661 1349.866, 744.681 1343.790, 735.500 1341.394 C 725.219 1338.712, 704.455 1338.904, 692.791 1341.789 C 671.705 1347.005, 653.428 1359.582, 641.248 1377.260 C 628.789 1395.341, 624.246 1411.070, 625.293 1432.500 C 626.381 1454.784, 634.057 1473.478, 648.452 1488.911 C 654.116 1494.982, 1028.520 1794.916, 1039.558 1802.225 C 1055.851 1813.013, 1079.153 1822.488, 1100.500 1827.007 C 1115.155 1830.109, 1143.843 1830.867, 1159.133 1828.557 C 1187.992 1824.197, 1210.343 1815.885, 1232.500 1801.273 C 1254.792 1786.572, 1271.388 1769.967, 1285.242 1748.500 C 1289.101 1742.519, 1856.088 771.395, 1864.709 756 C 1868.763 748.759, 1872.450 738.203, 1874.019 729.343 C 1875.709 719.803, 1874.787 701.857, 1872.075 691.500 C 1863.284 657.930, 1836.499 633.204, 1801.201 626.071 C 1796.081 625.036, 1776.585 624.769, 1772.500 625.677 M 0.455 1250.500 C 0.455 1271.950, 0.587 1280.583, 0.749 1269.684 C 0.911 1258.785, 0.910 1241.235, 0.748 1230.684 C 0.587 1220.133, 0.454 1229.050, 0.455 1250.500" stroke="none" fill="#000000" fill-rule="evenodd"></path>
</svg>